<svg width="900" height="140" viewBox="0 0 900 140" xmlns="http://www.w3.org/2000/svg"><rect width="900" height="140" fill="#0b0e14"/><line x1="0" y1="32.8" x2="900" y2="32.8" stroke="#232837"/><line x1="0" y1="70.0" x2="900" y2="70.0" stroke="#232837"/><line x1="0" y1="107.2" x2="900" y2="107.2" stroke="#232837"/><line x1="5.8" y1="90.0" x2="5.8" y2="95.3" stroke="#ef5350"/><rect x="2.3" y="91.7" width="6.9" height="1.9" fill="#ef5350"><title>2026-06-26: 3 contribuições</title></rect><line x1="17.3" y1="91.9" x2="17.3" y2="98.5" stroke="#ef5350"/><rect x="13.9" y="93.6" width="6.9" height="3.2" fill="#ef5350"><title>2026-06-27: 0 contribuições</title></rect><line x1="28.8" y1="95.1" x2="28.8" y2="101.7" stroke="#ef5350"/><rect x="25.4" y="96.8" width="6.9" height="3.2" fill="#ef5350"><title>2026-06-28: 0 contribuições</title></rect><line x1="40.4" y1="98.4" x2="40.4" y2="104.9" stroke="#ef5350"/><rect x="36.9" y="100.0" width="6.9" height="3.2" fill="#ef5350"><title>2026-06-29: 0 contribuições</title></rect><line x1="51.9" y1="101.6" x2="51.9" y2="108.1" stroke="#ef5350"/><rect x="48.4" y="103.2" width="6.9" height="3.3" fill="#ef5350"><title>2026-06-30: 0 contribuições</title></rect><line x1="63.5" y1="104.8" x2="63.5" y2="111.3" stroke="#ef5350"/><rect x="60.0" y="106.5" width="6.9" height="3.2" fill="#ef5350"><title>2026-07-01: 0 contribuições</title></rect><line x1="75.0" y1="108.0" x2="75.0" y2="114.6" stroke="#ef5350"/><rect x="71.5" y="109.7" width="6.9" height="3.2" fill="#ef5350"><title>2026-07-02: 0 contribuições</title></rect><line x1="86.5" y1="111.2" x2="86.5" y2="116.5" stroke="#ef5350"/><rect x="83.0" y="112.9" width="6.9" height="1.9" fill="#ef5350"><title>2026-07-03: 3 contribuições</title></rect><line x1="98.1" y1="112.0" x2="98.1" y2="116.5" stroke="#26a69a"/><rect x="94.6" y="113.6" width="6.9" height="1.2" fill="#26a69a"><title>2026-07-04: 9 contribuições</title></rect><line x1="109.6" y1="112.0" x2="109.6" y2="118.5" stroke="#ef5350"/><rect x="106.1" y="113.6" width="6.9" height="3.3" fill="#ef5350"><title>2026-07-05: 0 contribuições</title></rect><line x1="121.2" y1="115.2" x2="121.2" y2="121.7" stroke="#ef5350"/><rect x="117.8" y="116.9" width="6.9" height="3.2" fill="#ef5350"><title>2026-07-06: 0 contribuições</title></rect><line x1="132.7" y1="118.4" x2="132.7" y2="124.1" stroke="#ef5350"/><rect x="129.2" y="120.1" width="6.9" height="2.3" fill="#ef5350"><title>2026-07-07: 2 contribuições</title></rect><line x1="144.2" y1="120.7" x2="144.2" y2="127.3" stroke="#ef5350"/><rect x="140.8" y="122.4" width="6.9" height="3.2" fill="#ef5350"><title>2026-07-08: 0 contribuições</title></rect><line x1="155.8" y1="119.4" x2="155.8" y2="127.3" stroke="#26a69a"/><rect x="152.4" y="121.1" width="6.9" height="4.5" fill="#26a69a"><title>2026-07-09: 13 contribuições</title></rect><line x1="167.3" y1="119.4" x2="167.3" y2="126.0" stroke="#ef5350"/><rect x="163.9" y="121.1" width="6.9" height="3.2" fill="#ef5350"><title>2026-07-10: 0 contribuições</title></rect><line x1="178.8" y1="122.6" x2="178.8" y2="128.8" stroke="#ef5350"/><rect x="175.4" y="124.3" width="6.9" height="2.8" fill="#ef5350"><title>2026-07-11: 1 contribuições</title></rect><line x1="190.4" y1="125.4" x2="190.4" y2="132.0" stroke="#ef5350"/><rect x="187.0" y="127.1" width="6.9" height="3.2" fill="#ef5350"><title>2026-07-12: 0 contribuições</title></rect><line x1="201.9" y1="126.6" x2="201.9" y2="132.0" stroke="#26a69a"/><rect x="198.5" y="128.3" width="6.9" height="2.0" fill="#26a69a"><title>2026-07-13: 10 contribuições</title></rect><line x1="213.5" y1="109.1" x2="213.5" y2="132.0" stroke="#26a69a"/><rect x="210.1" y="112.8" width="6.9" height="15.5" fill="#26a69a"><title>2026-07-14: 26 contribuições</title></rect><line x1="225.0" y1="111.1" x2="225.0" y2="115.2" stroke="#ef5350"/><rect x="221.6" y="112.8" width="6.9" height="1.0" fill="#ef5350"><title>2026-07-15: 6 contribuições</title></rect><line x1="236.5" y1="110.6" x2="236.5" y2="115.2" stroke="#26a69a"/><rect x="233.1" y="112.3" width="6.9" height="1.2" fill="#26a69a"><title>2026-07-16: 9 contribuições</title></rect><line x1="248.1" y1="110.6" x2="248.1" y2="116.8" stroke="#ef5350"/><rect x="244.7" y="112.3" width="6.9" height="2.8" fill="#ef5350"><title>2026-07-17: 1 contribuições</title></rect><line x1="259.6" y1="113.4" x2="259.6" y2="120.0" stroke="#ef5350"/><rect x="256.2" y="115.1" width="6.9" height="3.2" fill="#ef5350"><title>2026-07-18: 0 contribuições</title></rect><line x1="271.2" y1="116.6" x2="271.2" y2="121.1" stroke="#ef5350"/><rect x="267.8" y="118.3" width="6.9" height="1.1" fill="#ef5350"><title>2026-07-19: 5 contribuições</title></rect><line x1="282.7" y1="115.7" x2="282.7" y2="121.1" stroke="#26a69a"/><rect x="279.2" y="117.4" width="6.9" height="2.0" fill="#26a69a"><title>2026-07-20: 10 contribuições</title></rect><line x1="294.2" y1="104.5" x2="294.2" y2="119.9" stroke="#26a69a"/><rect x="290.8" y="107.0" width="6.9" height="10.4" fill="#26a69a"><title>2026-07-21: 20 contribuições</title></rect><line x1="305.8" y1="101.6" x2="305.8" y2="108.7" stroke="#26a69a"/><rect x="302.4" y="103.3" width="6.9" height="3.7" fill="#26a69a"><title>2026-07-22: 12 contribuições</title></rect><line x1="317.3" y1="100.4" x2="317.3" y2="105.0" stroke="#26a69a"/><rect x="313.9" y="102.1" width="6.9" height="1.2" fill="#26a69a"><title>2026-07-23: 9 contribuições</title></rect><line x1="328.8" y1="100.4" x2="328.8" y2="107.0" stroke="#ef5350"/><rect x="325.4" y="102.1" width="6.9" height="3.2" fill="#ef5350"><title>2026-07-24: 0 contribuições</title></rect><line x1="340.4" y1="103.6" x2="340.4" y2="109.4" stroke="#ef5350"/><rect x="336.9" y="105.3" width="6.9" height="2.4" fill="#ef5350"><title>2026-07-25: 2 contribuições</title></rect><line x1="351.9" y1="96.8" x2="351.9" y2="109.8" stroke="#26a69a"/><rect x="348.4" y="98.9" width="6.9" height="8.8" fill="#26a69a"><title>2026-07-26: 18 contribuições</title></rect><line x1="363.5" y1="75.1" x2="363.5" y2="103.6" stroke="#26a69a"/><rect x="360.1" y="79.7" width="6.9" height="19.2" fill="#26a69a"><title>2026-07-27: 50 contribuições</title></rect><line x1="375.0" y1="67.8" x2="375.0" y2="82.0" stroke="#26a69a"/><rect x="371.6" y="70.1" width="6.9" height="9.6" fill="#26a69a"><title>2026-07-28: 19 contribuições</title></rect><line x1="386.5" y1="68.4" x2="386.5" y2="74.2" stroke="#ef5350"/><rect x="383.1" y="70.1" width="6.9" height="2.4" fill="#ef5350"><title>2026-07-29: 2 contribuições</title></rect><line x1="398.1" y1="70.8" x2="398.1" y2="76.9" stroke="#ef5350"/><rect x="394.7" y="72.5" width="6.9" height="2.8" fill="#ef5350"><title>2026-07-30: 1 contribuições</title></rect><line x1="409.6" y1="73.6" x2="409.6" y2="80.2" stroke="#ef5350"/><rect x="406.2" y="75.3" width="6.9" height="3.2" fill="#ef5350"><title>2026-07-31: 0 contribuições</title></rect><line x1="421.2" y1="76.8" x2="421.2" y2="82.5" stroke="#ef5350"/><rect x="417.8" y="78.5" width="6.9" height="2.3" fill="#ef5350"><title>2026-08-01: 2 contribuições</title></rect><line x1="432.7" y1="75.5" x2="432.7" y2="82.5" stroke="#26a69a"/><rect x="429.2" y="77.1" width="6.9" height="3.7" fill="#26a69a"><title>2026-08-02: 12 contribuições</title></rect><line x1="444.2" y1="75.5" x2="444.2" y2="81.6" stroke="#ef5350"/><rect x="440.8" y="77.1" width="6.9" height="2.8" fill="#ef5350"><title>2026-08-03: 1 contribuições</title></rect><line x1="455.8" y1="78.2" x2="455.8" y2="82.3" stroke="#ef5350"/><rect x="452.4" y="79.9" width="6.9" height="1.0" fill="#ef5350"><title>2026-08-04: 6 contribuições</title></rect><line x1="467.3" y1="78.9" x2="467.3" y2="84.2" stroke="#ef5350"/><rect x="463.9" y="80.6" width="6.9" height="1.9" fill="#ef5350"><title>2026-08-05: 3 contribuições</title></rect><line x1="478.8" y1="80.9" x2="478.8" y2="87.4" stroke="#ef5350"/><rect x="475.4" y="82.5" width="6.9" height="3.3" fill="#ef5350"><title>2026-08-06: 0 contribuições</title></rect><line x1="490.4" y1="84.1" x2="490.4" y2="90.6" stroke="#ef5350"/><rect x="486.9" y="85.8" width="6.9" height="3.2" fill="#ef5350"><title>2026-08-07: 0 contribuições</title></rect><line x1="501.9" y1="87.3" x2="501.9" y2="93.9" stroke="#ef5350"/><rect x="498.4" y="89.0" width="6.9" height="3.2" fill="#ef5350"><title>2026-08-08: 0 contribuições</title></rect><line x1="513.5" y1="89.3" x2="513.5" y2="93.9" stroke="#26a69a"/><rect x="510.1" y="91.0" width="6.9" height="1.2" fill="#26a69a"><title>2026-08-09: 9 contribuições</title></rect><line x1="525.0" y1="89.3" x2="525.0" y2="94.2" stroke="#ef5350"/><rect x="521.5" y="91.0" width="6.9" height="1.5" fill="#ef5350"><title>2026-08-10: 4 contribuições</title></rect><line x1="536.5" y1="90.8" x2="536.5" y2="97.4" stroke="#ef5350"/><rect x="533.0" y="92.5" width="6.9" height="3.2" fill="#ef5350"><title>2026-08-11: 0 contribuições</title></rect><line x1="548.1" y1="94.0" x2="548.1" y2="100.6" stroke="#ef5350"/><rect x="544.6" y="95.7" width="6.9" height="3.2" fill="#ef5350"><title>2026-08-12: 0 contribuições</title></rect><line x1="559.6" y1="97.3" x2="559.6" y2="102.1" stroke="#ef5350"/><rect x="556.1" y="98.9" width="6.9" height="1.6" fill="#ef5350"><title>2026-08-13: 4 contribuições</title></rect><line x1="571.2" y1="98.8" x2="571.2" y2="105.4" stroke="#ef5350"/><rect x="567.8" y="100.5" width="6.9" height="3.2" fill="#ef5350"><title>2026-08-14: 0 contribuições</title></rect><line x1="582.7" y1="102.0" x2="582.7" y2="108.6" stroke="#ef5350"/><rect x="579.2" y="103.7" width="6.9" height="3.2" fill="#ef5350"><title>2026-08-15: 0 contribuições</title></rect><line x1="594.2" y1="105.2" x2="594.2" y2="111.3" stroke="#ef5350"/><rect x="590.8" y="106.9" width="6.9" height="2.8" fill="#ef5350"><title>2026-08-16: 1 contribuições</title></rect><line x1="605.8" y1="108.0" x2="605.8" y2="112.9" stroke="#ef5350"/><rect x="602.3" y="109.7" width="6.9" height="1.5" fill="#ef5350"><title>2026-08-17: 4 contribuições</title></rect><line x1="617.3" y1="109.5" x2="617.3" y2="115.7" stroke="#ef5350"/><rect x="613.8" y="111.2" width="6.9" height="2.8" fill="#ef5350"><title>2026-08-18: 1 contribuições</title></rect><line x1="628.8" y1="112.3" x2="628.8" y2="117.6" stroke="#ef5350"/><rect x="625.3" y="114.0" width="6.9" height="1.9" fill="#ef5350"><title>2026-08-19: 3 contribuições</title></rect><line x1="640.4" y1="108.8" x2="640.4" y2="117.6" stroke="#26a69a"/><rect x="636.9" y="110.5" width="6.9" height="5.4" fill="#26a69a"><title>2026-08-20: 14 contribuições</title></rect><line x1="651.9" y1="108.8" x2="651.9" y2="113.7" stroke="#ef5350"/><rect x="648.4" y="110.5" width="6.9" height="1.6" fill="#ef5350"><title>2026-08-21: 4 contribuições</title></rect><line x1="663.5" y1="110.4" x2="663.5" y2="116.9" stroke="#ef5350"/><rect x="660.0" y="112.1" width="6.9" height="3.2" fill="#ef5350"><title>2026-08-22: 0 contribuições</title></rect><line x1="675.0" y1="97.1" x2="675.0" y2="118.8" stroke="#26a69a"/><rect x="671.5" y="100.6" width="6.9" height="14.7" fill="#26a69a"><title>2026-08-23: 25 contribuições</title></rect><line x1="686.5" y1="98.6" x2="686.5" y2="102.3" stroke="#26a69a"/><rect x="683.0" y="100.3" width="6.9" height="1.0" fill="#26a69a"><title>2026-08-24: 8 contribuições</title></rect><line x1="698.1" y1="93.2" x2="698.1" y2="102.0" stroke="#26a69a"/><rect x="694.6" y="94.9" width="6.9" height="5.4" fill="#26a69a"><title>2026-08-25: 14 contribuições</title></rect><line x1="709.6" y1="77.8" x2="709.6" y2="98.2" stroke="#26a69a"/><rect x="706.1" y="81.1" width="6.9" height="13.8" fill="#26a69a"><title>2026-08-26: 24 contribuições</title></rect><line x1="721.2" y1="71.3" x2="721.2" y2="83.0" stroke="#26a69a"/><rect x="717.8" y="73.2" width="6.9" height="7.9" fill="#26a69a"><title>2026-08-27: 17 contribuições</title></rect><line x1="732.7" y1="49.4" x2="732.7" y2="77.8" stroke="#26a69a"/><rect x="729.2" y="54.0" width="6.9" height="19.2" fill="#26a69a"><title>2026-08-28: 32 contribuições</title></rect><line x1="744.2" y1="40.0" x2="744.2" y2="56.7" stroke="#26a69a"/><rect x="740.8" y="42.7" width="6.9" height="11.3" fill="#26a69a"><title>2026-08-29: 21 contribuições</title></rect><line x1="755.8" y1="34.0" x2="755.8" y2="44.4" stroke="#26a69a"/><rect x="752.3" y="35.6" width="6.9" height="7.1" fill="#26a69a"><title>2026-08-30: 16 contribuições</title></rect><line x1="767.3" y1="20.6" x2="767.3" y2="38.6" stroke="#26a69a"/><rect x="763.8" y="23.5" width="6.9" height="12.1" fill="#26a69a"><title>2026-08-31: 22 contribuições</title></rect><line x1="778.8" y1="21.5" x2="778.8" y2="25.2" stroke="#26a69a"/><rect x="775.3" y="23.2" width="6.9" height="1.0" fill="#26a69a"><title>2026-09-01: 8 contribuições</title></rect><line x1="790.4" y1="21.5" x2="790.4" y2="28.1" stroke="#ef5350"/><rect x="786.9" y="23.2" width="6.9" height="3.2" fill="#ef5350"><title>2026-09-02: 0 contribuições</title></rect><line x1="801.9" y1="24.7" x2="801.9" y2="31.3" stroke="#ef5350"/><rect x="798.4" y="26.4" width="6.9" height="3.2" fill="#ef5350"><title>2026-09-03: 0 contribuições</title></rect><line x1="813.5" y1="27.9" x2="813.5" y2="34.1" stroke="#ef5350"/><rect x="810.0" y="29.6" width="6.9" height="2.8" fill="#ef5350"><title>2026-09-04: 1 contribuições</title></rect><line x1="825.0" y1="30.7" x2="825.0" y2="36.9" stroke="#ef5350"/><rect x="821.5" y="32.4" width="6.9" height="2.8" fill="#ef5350"><title>2026-09-05: 1 contribuições</title></rect><line x1="836.5" y1="20.2" x2="836.5" y2="38.1" stroke="#26a69a"/><rect x="833.0" y="23.1" width="6.9" height="12.1" fill="#26a69a"><title>2026-09-06: 22 contribuições</title></rect><line x1="848.1" y1="21.4" x2="848.1" y2="28.0" stroke="#ef5350"/><rect x="844.6" y="23.1" width="6.9" height="3.2" fill="#ef5350"><title>2026-09-07: 0 contribuições</title></rect><line x1="859.6" y1="24.6" x2="859.6" y2="31.2" stroke="#ef5350"/><rect x="856.1" y="26.3" width="6.9" height="3.2" fill="#ef5350"><title>2026-09-08: 0 contribuições</title></rect><line x1="871.2" y1="27.8" x2="871.2" y2="33.5" stroke="#ef5350"/><rect x="867.8" y="29.5" width="6.9" height="2.4" fill="#ef5350"><title>2026-09-09: 2 contribuições</title></rect><line x1="882.7" y1="8.0" x2="882.7" y2="36.5" stroke="#26a69a"/><rect x="879.2" y="12.6" width="6.9" height="19.3" fill="#26a69a"><title>2026-09-10: 82 contribuições</title></rect><line x1="894.2" y1="10.9" x2="894.2" y2="17.5" stroke="#ef5350"/><rect x="890.8" y="12.6" width="6.9" height="3.2" fill="#ef5350"><title>2026-09-11: 0 contribuições</title></rect></svg>