<svg width="900" height="140" viewBox="0 0 900 140" xmlns="http://www.w3.org/2000/svg"><rect width="900" height="140" fill="#0b0e14"/><line x1="0" y1="32.8" x2="900" y2="32.8" stroke="#232837"/><line x1="0" y1="70.0" x2="900" y2="70.0" stroke="#232837"/><line x1="0" y1="107.2" x2="900" y2="107.2" stroke="#232837"/><line x1="7.1" y1="9.0" x2="7.1" y2="18.9" stroke="#ef5350"/><rect x="2.8" y="11.8" width="8.6" height="4.3" fill="#ef5350"><title>2026-06-26: 3 contribuições</title></rect><line x1="21.4" y1="13.3" x2="21.4" y2="27.4" stroke="#ef5350"/><rect x="17.1" y="16.1" width="8.6" height="8.5" fill="#ef5350"><title>2026-06-27: 0 contribuições</title></rect><line x1="35.7" y1="21.8" x2="35.7" y2="35.9" stroke="#ef5350"/><rect x="31.4" y="24.6" width="8.6" height="8.5" fill="#ef5350"><title>2026-06-28: 0 contribuições</title></rect><line x1="50.0" y1="30.3" x2="50.0" y2="44.4" stroke="#ef5350"/><rect x="45.7" y="33.1" width="8.6" height="8.5" fill="#ef5350"><title>2026-06-29: 0 contribuições</title></rect><line x1="64.3" y1="38.8" x2="64.3" y2="52.9" stroke="#ef5350"/><rect x="60.0" y="41.6" width="8.6" height="8.5" fill="#ef5350"><title>2026-06-30: 0 contribuições</title></rect><line x1="78.6" y1="47.3" x2="78.6" y2="61.4" stroke="#ef5350"/><rect x="74.3" y="50.1" width="8.6" height="8.5" fill="#ef5350"><title>2026-07-01: 0 contribuições</title></rect><line x1="92.9" y1="55.8" x2="92.9" y2="69.9" stroke="#ef5350"/><rect x="88.6" y="58.6" width="8.6" height="8.5" fill="#ef5350"><title>2026-07-02: 0 contribuições</title></rect><line x1="107.1" y1="64.3" x2="107.1" y2="74.2" stroke="#ef5350"/><rect x="102.8" y="67.1" width="8.6" height="4.4" fill="#ef5350"><title>2026-07-03: 3 contribuições</title></rect><line x1="121.4" y1="64.6" x2="121.4" y2="74.2" stroke="#26a69a"/><rect x="117.1" y="67.4" width="8.6" height="4.1" fill="#26a69a"><title>2026-07-04: 9 contribuições</title></rect><line x1="135.7" y1="64.6" x2="135.7" y2="78.7" stroke="#ef5350"/><rect x="131.4" y="67.4" width="8.6" height="8.5" fill="#ef5350"><title>2026-07-05: 0 contribuições</title></rect><line x1="150.0" y1="73.1" x2="150.0" y2="87.2" stroke="#ef5350"/><rect x="145.7" y="75.9" width="8.6" height="8.5" fill="#ef5350"><title>2026-07-06: 0 contribuições</title></rect><line x1="164.3" y1="81.6" x2="164.3" y2="92.9" stroke="#ef5350"/><rect x="160.0" y="84.4" width="8.6" height="5.7" fill="#ef5350"><title>2026-07-07: 2 contribuições</title></rect><line x1="178.6" y1="87.3" x2="178.6" y2="101.4" stroke="#ef5350"/><rect x="174.3" y="90.1" width="8.6" height="8.5" fill="#ef5350"><title>2026-07-08: 0 contribuições</title></rect><line x1="192.9" y1="86.2" x2="192.9" y2="101.4" stroke="#26a69a"/><rect x="188.6" y="89.0" width="8.6" height="9.6" fill="#26a69a"><title>2026-07-09: 13 contribuições</title></rect><line x1="207.1" y1="86.2" x2="207.1" y2="100.3" stroke="#ef5350"/><rect x="202.8" y="89.0" width="8.6" height="8.5" fill="#ef5350"><title>2026-07-10: 0 contribuições</title></rect><line x1="221.4" y1="94.7" x2="221.4" y2="107.4" stroke="#ef5350"/><rect x="217.1" y="97.5" width="8.6" height="7.1" fill="#ef5350"><title>2026-07-11: 1 contribuições</title></rect><line x1="235.7" y1="101.8" x2="235.7" y2="115.9" stroke="#ef5350"/><rect x="231.4" y="104.6" width="8.6" height="8.5" fill="#ef5350"><title>2026-07-12: 0 contribuições</title></rect><line x1="250.0" y1="104.9" x2="250.0" y2="115.9" stroke="#26a69a"/><rect x="245.7" y="107.7" width="8.6" height="5.4" fill="#26a69a"><title>2026-07-13: 10 contribuições</title></rect><line x1="264.3" y1="76.0" x2="264.3" y2="113.8" stroke="#26a69a"/><rect x="260.0" y="82.2" width="8.6" height="25.5" fill="#26a69a"><title>2026-07-14: 26 contribuições</title></rect><line x1="278.6" y1="79.4" x2="278.6" y2="85.1" stroke="#ef5350"/><rect x="274.3" y="82.2" width="8.6" height="1.0" fill="#ef5350"><title>2026-07-15: 6 contribuições</title></rect><line x1="292.9" y1="75.4" x2="292.9" y2="85.1" stroke="#26a69a"/><rect x="288.6" y="78.2" width="8.6" height="4.1" fill="#26a69a"><title>2026-07-16: 9 contribuições</title></rect><line x1="307.1" y1="75.4" x2="307.1" y2="88.1" stroke="#ef5350"/><rect x="302.8" y="78.2" width="8.6" height="7.1" fill="#ef5350"><title>2026-07-17: 1 contribuições</title></rect><line x1="321.4" y1="82.6" x2="321.4" y2="96.6" stroke="#ef5350"/><rect x="317.1" y="85.3" width="8.6" height="8.5" fill="#ef5350"><title>2026-07-18: 0 contribuições</title></rect><line x1="335.7" y1="91.1" x2="335.7" y2="98.2" stroke="#ef5350"/><rect x="331.4" y="93.8" width="8.6" height="1.6" fill="#ef5350"><title>2026-07-19: 5 contribuições</title></rect><line x1="350.0" y1="87.1" x2="350.0" y2="98.2" stroke="#26a69a"/><rect x="345.7" y="89.9" width="8.6" height="5.5" fill="#26a69a"><title>2026-07-20: 10 contribuições</title></rect><line x1="364.3" y1="65.9" x2="364.3" y2="94.6" stroke="#26a69a"/><rect x="360.0" y="70.5" width="8.6" height="19.4" fill="#26a69a"><title>2026-07-21: 20 contribuições</title></rect><line x1="378.6" y1="59.5" x2="378.6" y2="73.3" stroke="#26a69a"/><rect x="374.3" y="62.3" width="8.6" height="8.2" fill="#26a69a"><title>2026-07-22: 12 contribuições</title></rect><line x1="392.9" y1="55.4" x2="392.9" y2="65.1" stroke="#26a69a"/><rect x="388.6" y="58.2" width="8.6" height="4.1" fill="#26a69a"><title>2026-07-23: 9 contribuições</title></rect><line x1="407.1" y1="55.4" x2="407.1" y2="69.5" stroke="#ef5350"/><rect x="402.8" y="58.2" width="8.6" height="8.5" fill="#ef5350"><title>2026-07-24: 0 contribuições</title></rect><line x1="421.4" y1="63.9" x2="421.4" y2="75.2" stroke="#ef5350"/><rect x="417.1" y="66.7" width="8.6" height="5.8" fill="#ef5350"><title>2026-07-25: 2 contribuições</title></rect><line x1="435.7" y1="51.9" x2="435.7" y2="76.4" stroke="#26a69a"/><rect x="431.4" y="55.8" width="8.6" height="16.7" fill="#26a69a"><title>2026-07-26: 18 contribuições</title></rect><line x1="450.0" y1="24.2" x2="450.0" y2="62.0" stroke="#26a69a"/><rect x="445.7" y="30.3" width="8.6" height="25.5" fill="#26a69a"><title>2026-07-27: 50 contribuições</title></rect><line x1="464.3" y1="8.0" x2="464.3" y2="34.6" stroke="#26a69a"/><rect x="460.0" y="12.3" width="8.6" height="18.0" fill="#26a69a"><title>2026-07-28: 19 contribuições</title></rect><line x1="478.6" y1="9.5" x2="478.6" y2="20.8" stroke="#ef5350"/><rect x="474.3" y="12.3" width="8.6" height="5.7" fill="#ef5350"><title>2026-07-29: 2 contribuições</title></rect><line x1="492.9" y1="15.2" x2="492.9" y2="27.9" stroke="#ef5350"/><rect x="488.6" y="18.0" width="8.6" height="7.1" fill="#ef5350"><title>2026-07-30: 1 contribuições</title></rect><line x1="507.1" y1="22.4" x2="507.1" y2="36.4" stroke="#ef5350"/><rect x="502.8" y="25.1" width="8.6" height="8.6" fill="#ef5350"><title>2026-07-31: 0 contribuições</title></rect><line x1="521.4" y1="30.9" x2="521.4" y2="42.2" stroke="#ef5350"/><rect x="517.1" y="33.7" width="8.6" height="5.7" fill="#ef5350"><title>2026-08-01: 2 contribuições</title></rect><line x1="535.7" y1="28.3" x2="535.7" y2="42.2" stroke="#26a69a"/><rect x="531.4" y="31.1" width="8.6" height="8.3" fill="#26a69a"><title>2026-08-02: 12 contribuições</title></rect><line x1="550.0" y1="28.3" x2="550.0" y2="41.0" stroke="#ef5350"/><rect x="545.7" y="31.1" width="8.6" height="7.1" fill="#ef5350"><title>2026-08-03: 1 contribuições</title></rect><line x1="564.3" y1="35.4" x2="564.3" y2="41.2" stroke="#ef5350"/><rect x="560.0" y="38.2" width="8.6" height="1.0" fill="#ef5350"><title>2026-08-04: 6 contribuições</title></rect><line x1="578.6" y1="35.6" x2="578.6" y2="45.5" stroke="#ef5350"/><rect x="574.3" y="38.4" width="8.6" height="4.3" fill="#ef5350"><title>2026-08-05: 3 contribuições</title></rect><line x1="592.9" y1="39.9" x2="592.9" y2="54.0" stroke="#ef5350"/><rect x="588.6" y="42.7" width="8.6" height="8.5" fill="#ef5350"><title>2026-08-06: 0 contribuições</title></rect><line x1="607.1" y1="48.4" x2="607.1" y2="62.5" stroke="#ef5350"/><rect x="602.8" y="51.2" width="8.6" height="8.5" fill="#ef5350"><title>2026-08-07: 0 contribuições</title></rect><line x1="621.4" y1="56.9" x2="621.4" y2="71.0" stroke="#ef5350"/><rect x="617.1" y="59.7" width="8.6" height="8.5" fill="#ef5350"><title>2026-08-08: 0 contribuições</title></rect><line x1="635.7" y1="61.4" x2="635.7" y2="71.0" stroke="#26a69a"/><rect x="631.4" y="64.1" width="8.6" height="4.1" fill="#26a69a"><title>2026-08-09: 9 contribuições</title></rect><line x1="650.0" y1="61.4" x2="650.0" y2="69.9" stroke="#ef5350"/><rect x="645.7" y="64.1" width="8.6" height="3.0" fill="#ef5350"><title>2026-08-10: 4 contribuições</title></rect><line x1="664.3" y1="64.3" x2="664.3" y2="78.4" stroke="#ef5350"/><rect x="660.0" y="67.1" width="8.6" height="8.5" fill="#ef5350"><title>2026-08-11: 0 contribuições</title></rect><line x1="678.6" y1="72.8" x2="678.6" y2="86.9" stroke="#ef5350"/><rect x="674.3" y="75.6" width="8.6" height="8.5" fill="#ef5350"><title>2026-08-12: 0 contribuições</title></rect><line x1="692.9" y1="81.3" x2="692.9" y2="89.8" stroke="#ef5350"/><rect x="688.6" y="84.1" width="8.6" height="2.9" fill="#ef5350"><title>2026-08-13: 4 contribuições</title></rect><line x1="707.1" y1="84.2" x2="707.1" y2="98.3" stroke="#ef5350"/><rect x="702.8" y="87.0" width="8.6" height="8.5" fill="#ef5350"><title>2026-08-14: 0 contribuições</title></rect><line x1="721.4" y1="92.7" x2="721.4" y2="106.8" stroke="#ef5350"/><rect x="717.1" y="95.5" width="8.6" height="8.5" fill="#ef5350"><title>2026-08-15: 0 contribuições</title></rect><line x1="735.7" y1="101.2" x2="735.7" y2="113.9" stroke="#ef5350"/><rect x="731.4" y="104.0" width="8.6" height="7.1" fill="#ef5350"><title>2026-08-16: 1 contribuições</title></rect><line x1="750.0" y1="108.3" x2="750.0" y2="116.8" stroke="#ef5350"/><rect x="745.7" y="111.1" width="8.6" height="2.9" fill="#ef5350"><title>2026-08-17: 4 contribuições</title></rect><line x1="764.3" y1="111.3" x2="764.3" y2="123.9" stroke="#ef5350"/><rect x="760.0" y="114.0" width="8.6" height="7.2" fill="#ef5350"><title>2026-08-18: 1 contribuições</title></rect><line x1="778.6" y1="118.4" x2="778.6" y2="128.3" stroke="#ef5350"/><rect x="774.3" y="121.2" width="8.6" height="4.3" fill="#ef5350"><title>2026-08-19: 3 contribuições</title></rect><line x1="792.9" y1="111.7" x2="792.9" y2="128.3" stroke="#26a69a"/><rect x="788.6" y="114.4" width="8.6" height="11.1" fill="#26a69a"><title>2026-08-20: 14 contribuições</title></rect><line x1="807.1" y1="111.7" x2="807.1" y2="120.2" stroke="#ef5350"/><rect x="802.8" y="114.4" width="8.6" height="3.0" fill="#ef5350"><title>2026-08-21: 4 contribuições</title></rect><line x1="821.4" y1="114.6" x2="821.4" y2="128.7" stroke="#ef5350"/><rect x="817.1" y="117.4" width="8.6" height="8.5" fill="#ef5350"><title>2026-08-22: 0 contribuições</title></rect><line x1="835.7" y1="94.2" x2="835.7" y2="132.0" stroke="#26a69a"/><rect x="831.4" y="100.4" width="8.6" height="25.5" fill="#26a69a"><title>2026-08-23: 25 contribuições</title></rect><line x1="850.0" y1="94.9" x2="850.0" y2="103.2" stroke="#26a69a"/><rect x="845.7" y="97.7" width="8.6" height="2.7" fill="#26a69a"><title>2026-08-24: 8 contribuições</title></rect><line x1="864.3" y1="83.9" x2="864.3" y2="100.5" stroke="#26a69a"/><rect x="860.0" y="86.7" width="8.6" height="11.0" fill="#26a69a"><title>2026-08-25: 14 contribuições</title></rect><line x1="878.6" y1="60.9" x2="878.6" y2="91.7" stroke="#26a69a"/><rect x="874.3" y="65.9" width="8.6" height="20.8" fill="#26a69a"><title>2026-08-26: 21 contribuições</title></rect><line x1="892.9" y1="47.0" x2="892.9" y2="69.5" stroke="#26a69a"/><rect x="888.6" y="50.7" width="8.6" height="15.2" fill="#26a69a"><title>2026-08-27: 17 contribuições</title></rect></svg>